<svg width="329" height="330" viewBox="0 0 329 330" fill="none" xmlns="http://www.w3.org/2000/svg">
<g clip-path="url(#clip0)">
<path d="M31.6386 277.996L28.741 266.568C23.6035 264.39 18.3474 262.505 12.9975 260.919L12.6318 266.23L11.1485 260.379C4.51374 258.482 0 257.648 0 257.648C0 257.648 6.09546 280.833 18.8845 298.559L33.7848 301.176L22.2092 302.846C23.8179 304.781 25.5467 306.614 27.3854 308.333C45.9877 325.6 66.7074 333.523 73.6638 326.028C80.6201 318.533 71.1792 298.459 52.577 281.193C46.8101 275.84 39.5658 271.544 32.314 268.163L31.6386 277.996Z" fill="#F2F2F2"/>
<path d="M59.1946 265.583L62.6213 254.302C59.3491 249.783 55.8246 245.451 52.0646 241.328L49.0063 245.686L50.7607 239.91C46.0606 234.858 42.6281 231.811 42.6281 231.811C42.6281 231.811 35.8635 254.81 37.6479 276.595L49.0504 286.538L38.2765 281.983C38.6535 284.472 39.1866 286.935 39.8728 289.357C46.872 313.755 60.5139 331.247 70.3426 328.427C80.1714 325.607 82.4656 303.543 75.4664 279.145C73.2967 271.581 69.3153 264.159 64.8554 257.516L59.1946 265.583Z" fill="#F2F2F2"/>
<path d="M229.574 78.1772H227.767V28.6602C227.767 24.8965 227.026 21.1697 225.586 17.6924C224.145 14.2152 222.034 11.0557 219.373 8.3944C216.712 5.73305 213.552 3.62195 210.075 2.18164C206.598 0.741331 202.872 1.52588e-05 199.108 1.52588e-05H94.2011C86.6003 1.52588e-05 79.3108 3.01957 73.9362 8.3944C68.5616 13.7692 65.5422 21.0591 65.5422 28.6602V300.319C65.5422 304.083 66.2835 307.81 67.7238 311.287C69.164 314.764 71.275 317.923 73.9362 320.585C76.5974 323.246 79.7568 325.357 83.2338 326.798C86.7109 328.238 90.4376 328.979 94.2011 328.979H199.108C206.709 328.979 213.998 325.959 219.373 320.585C224.747 315.21 227.767 307.92 227.767 300.319V113.424H229.574L229.574 78.1772Z" fill="#E6E6E6"/>
<path d="M200.264 7.45361H186.572C187.202 8.99769 187.442 10.673 187.272 12.3318C187.101 13.9907 186.526 15.5823 185.596 16.9663C184.666 18.3503 183.409 19.4843 181.938 20.2683C180.466 21.0524 178.824 21.4624 177.156 21.4624H117.056C115.389 21.4623 113.747 21.0521 112.276 20.268C110.804 19.4839 109.548 18.3499 108.618 16.9659C107.688 15.5819 107.112 13.9904 106.942 12.3316C106.772 10.6728 107.012 8.99762 107.642 7.45361H94.8521C89.1759 7.45361 83.7322 9.70858 79.7185 13.7225C75.7048 17.7363 73.45 23.1803 73.45 28.8568V300.121C73.45 305.798 75.7048 311.242 79.7185 315.255C83.7322 319.269 89.1759 321.524 94.8521 321.524H200.264C205.941 321.524 211.384 319.269 215.398 315.255C219.412 311.242 221.667 305.798 221.667 300.121V28.8563C221.667 23.1799 219.412 17.7361 215.398 13.7223C211.384 9.70852 205.941 7.45361 200.264 7.45361Z" fill="white"/>
<path d="M134.126 115.512C134.126 113.615 134.625 111.753 135.573 110.111C136.521 108.469 137.885 107.106 139.528 106.158C137.886 105.21 136.024 104.711 134.128 104.711C132.232 104.711 130.37 105.209 128.728 106.157C127.086 107.105 125.722 108.469 124.774 110.11C123.826 111.752 123.327 113.615 123.327 115.511C123.327 117.407 123.826 119.269 124.774 120.911C125.722 122.553 127.086 123.917 128.728 124.864C130.37 125.812 132.232 126.311 134.128 126.311C136.024 126.311 137.886 125.811 139.528 124.863C137.886 123.916 136.522 122.553 135.573 120.912C134.625 119.27 134.126 117.407 134.126 115.512Z" fill="#CCCCCC"/>
<path d="M147.703 115.512C147.702 113.615 148.201 111.753 149.15 110.111C150.098 108.469 151.462 107.106 153.105 106.158C151.463 105.21 149.6 104.711 147.705 104.711C145.809 104.711 143.946 105.209 142.304 106.157C140.662 107.105 139.299 108.469 138.351 110.11C137.403 111.752 136.904 113.615 136.904 115.511C136.904 117.407 137.403 119.269 138.351 120.911C139.299 122.553 140.662 123.917 142.304 124.864C143.946 125.812 145.809 126.311 147.705 126.311C149.6 126.311 151.463 125.811 153.105 124.863C151.462 123.916 150.098 122.553 149.15 120.912C148.201 119.27 147.702 117.407 147.703 115.512Z" fill="#CCCCCC"/>
<path d="M160.971 126.311C166.935 126.311 171.77 121.476 171.77 115.511C171.77 109.546 166.935 104.711 160.971 104.711C155.006 104.711 150.171 109.546 150.171 115.511C150.171 121.476 155.006 126.311 160.971 126.311Z" fill="#214A4A"/>
<path d="M179.02 149.244H116.077C115.478 149.243 114.903 149.005 114.48 148.581C114.056 148.157 113.818 147.583 113.817 146.984V84.0384C113.818 83.4392 114.056 82.8647 114.48 82.4409C114.903 82.0172 115.478 81.7788 116.077 81.7781H179.02C179.619 81.7788 180.193 82.0172 180.617 82.4409C181.041 82.8647 181.279 83.4392 181.28 84.0384V146.984C181.279 147.583 181.041 148.157 180.617 148.581C180.193 149.005 179.619 149.243 179.02 149.244ZM116.077 82.6828C115.718 82.6831 115.373 82.8261 115.119 83.0803C114.865 83.3346 114.722 83.6793 114.721 84.0389V146.984C114.722 147.344 114.865 147.688 115.119 147.943C115.373 148.197 115.718 148.34 116.077 148.34H179.02C179.379 148.34 179.724 148.197 179.978 147.943C180.232 147.688 180.375 147.344 180.376 146.984V84.0389C180.375 83.6793 180.232 83.3346 179.978 83.0803C179.724 82.8261 179.379 82.6831 179.02 82.6828H116.077Z" fill="#CCCCCC"/>
<path d="M193.074 197.495H96.5391V198.399H193.074V197.495Z" fill="#CCCCCC"/>
<path d="M99.5877 191.849C101.271 191.849 102.636 190.484 102.636 188.801C102.636 187.117 101.271 185.752 99.5877 185.752C97.904 185.752 96.5391 187.117 96.5391 188.801C96.5391 190.484 97.904 191.849 99.5877 191.849Z" fill="#214A4A"/>
<path d="M193.074 227.98H96.5391V228.885H193.074V227.98Z" fill="#CCCCCC"/>
<path d="M99.5877 222.336C101.271 222.336 102.636 220.971 102.636 219.287C102.636 217.603 101.271 216.238 99.5877 216.238C97.904 216.238 96.5391 217.603 96.5391 219.287C96.5391 220.971 97.904 222.336 99.5877 222.336Z" fill="#214A4A"/>
<path d="M191.307 262.696H160.799C160.272 262.696 159.767 262.486 159.395 262.114C159.022 261.741 158.812 261.236 158.812 260.709V250.015C158.812 249.488 159.022 248.983 159.395 248.611C159.767 248.238 160.272 248.028 160.799 248.028H191.307C191.834 248.028 192.339 248.238 192.712 248.611C193.084 248.983 193.294 249.488 193.295 250.015V260.709C193.294 261.236 193.084 261.741 192.712 262.114C192.339 262.486 191.834 262.696 191.307 262.696Z" fill="#214A4A"/>
<path d="M109.532 191.849C111.216 191.849 112.581 190.484 112.581 188.801C112.581 187.117 111.216 185.752 109.532 185.752C107.848 185.752 106.484 187.117 106.484 188.801C106.484 190.484 107.848 191.849 109.532 191.849Z" fill="#214A4A"/>
<path d="M119.477 191.849C121.16 191.849 122.525 190.484 122.525 188.801C122.525 187.117 121.16 185.752 119.477 185.752C117.793 185.752 116.428 187.117 116.428 188.801C116.428 190.484 117.793 191.849 119.477 191.849Z" fill="#214A4A"/>
<path d="M109.532 222.336C111.216 222.336 112.581 220.971 112.581 219.287C112.581 217.603 111.216 216.238 109.532 216.238C107.848 216.238 106.484 217.603 106.484 219.287C106.484 220.971 107.848 222.336 109.532 222.336Z" fill="#214A4A"/>
<path d="M119.477 222.336C121.16 222.336 122.525 220.971 122.525 219.287C122.525 217.603 121.16 216.238 119.477 216.238C117.793 216.238 116.428 217.603 116.428 219.287C116.428 220.971 117.793 222.336 119.477 222.336Z" fill="#214A4A"/>
<path d="M327.771 330H10.6362C9.95727 330 9.40735 329.759 9.40735 329.462C9.40735 329.165 9.95727 328.924 10.6362 328.924H327.771C328.45 328.924 329 329.165 329 329.462C329 329.759 328.45 330 327.771 330Z" fill="#3F3D56"/>
<path d="M249.418 216.206C249.635 216.305 249.843 216.421 250.041 216.553L269.853 208.097L270.56 202.878L278.476 202.83L278.008 214.8L251.859 221.715C251.804 221.897 251.738 222.075 251.662 222.249C251.284 223.056 250.676 223.733 249.914 224.195C249.153 224.658 248.271 224.885 247.381 224.848C246.491 224.811 245.632 224.512 244.911 223.988C244.19 223.464 243.64 222.739 243.33 221.904C243.02 221.069 242.964 220.161 243.168 219.294C243.373 218.426 243.829 217.639 244.479 217.03C245.13 216.421 245.945 216.018 246.824 215.872C247.703 215.725 248.605 215.841 249.418 216.206Z" fill="#FFB8B8"/>
<path d="M281.355 324.675H275.939L273.363 303.786L281.356 303.787L281.355 324.675Z" fill="#FFB8B8"/>
<path d="M272.071 323.127H282.515V329.703H265.496C265.496 327.959 266.189 326.286 267.422 325.053C268.655 323.82 270.327 323.127 272.071 323.127Z" fill="#2F2E41"/>
<path d="M302.415 323.144L297.026 323.675L292.414 303.141L300.368 302.357L302.415 323.144Z" fill="#FFB8B8"/>
<path d="M293.025 322.515L303.418 321.491L304.063 328.035L287.126 329.703C287.041 328.844 287.126 327.976 287.377 327.15C287.628 326.324 288.039 325.555 288.587 324.887C289.134 324.22 289.808 323.667 290.57 323.259C291.331 322.852 292.166 322.599 293.025 322.515Z" fill="#2F2E41"/>
<path d="M282.862 180.724C288.853 180.724 293.711 175.866 293.711 169.875C293.711 163.883 288.853 159.025 282.862 159.025C276.87 159.025 272.013 163.883 272.013 169.875C272.013 175.866 276.87 180.724 282.862 180.724Z" fill="#FFB8B8"/>
<path d="M274.729 320.45C274.264 320.452 273.813 320.288 273.456 319.99C273.099 319.691 272.86 319.276 272.779 318.817C269.976 303.257 260.814 252.38 260.595 250.971C260.59 250.938 260.588 250.906 260.588 250.873V247.079C260.588 246.941 260.631 246.806 260.712 246.694L261.922 244.999C261.98 244.917 262.055 244.85 262.143 244.802C262.23 244.754 262.328 244.727 262.427 244.723C269.328 244.399 291.926 243.451 293.018 244.815C294.114 246.186 293.727 250.34 293.638 251.158L293.642 251.244L303.795 316.175C303.874 316.693 303.747 317.221 303.44 317.645C303.133 318.07 302.671 318.356 302.154 318.443L295.813 319.488C295.34 319.563 294.857 319.467 294.449 319.217C294.042 318.966 293.738 318.577 293.593 318.121C291.632 311.854 285.055 290.771 282.776 282.613C282.762 282.561 282.729 282.517 282.685 282.487C282.64 282.458 282.586 282.446 282.533 282.453C282.48 282.461 282.431 282.487 282.396 282.528C282.361 282.569 282.342 282.621 282.343 282.674C282.457 290.451 282.732 310.292 282.827 317.145L282.837 317.883C282.842 318.383 282.658 318.866 282.323 319.237C281.989 319.608 281.527 319.84 281.03 319.887L274.915 320.442C274.853 320.448 274.791 320.45 274.729 320.45Z" fill="#2F2E41"/>
<path d="M275.977 184.99C274.084 186.115 272.951 188.183 272.301 190.288C271.097 194.185 270.373 198.213 270.143 202.285L269.456 214.477L260.951 246.797C268.323 253.035 272.575 251.617 282.498 246.515C292.42 241.413 293.554 248.216 293.554 248.216L295.539 220.715L298.374 190.664C297.737 189.898 297.017 189.205 296.226 188.599C293.606 186.562 290.557 185.145 287.31 184.457C284.062 183.769 280.701 183.826 277.479 184.626L275.977 184.99Z" fill="#214A4A"/>
<path d="M273.214 222.733C273.443 222.819 273.665 222.923 273.877 223.044L293.466 213.239L293.791 207.927L301.871 207.37L302.304 219.479L276.127 228.136C275.913 229.053 275.425 229.883 274.728 230.516C274.031 231.149 273.158 231.555 272.225 231.679C271.292 231.804 270.343 231.641 269.504 231.213C268.666 230.785 267.977 230.112 267.531 229.283C267.084 228.455 266.9 227.51 267.004 226.574C267.107 225.638 267.493 224.756 268.11 224.045C268.727 223.334 269.546 222.828 270.458 222.593C271.369 222.359 272.331 222.408 273.214 222.733Z" fill="#FFB8B8"/>
<path d="M298.232 190.802C303.051 192.503 303.9 210.933 303.9 210.933C298.23 207.814 291.426 212.917 291.426 212.917C291.426 212.917 290.009 208.097 288.308 201.86C287.794 200.106 287.733 198.25 288.129 196.465C288.526 194.68 289.367 193.025 290.575 191.653C290.575 191.653 293.412 189.099 298.232 190.802Z" fill="#214A4A"/>
<path d="M292.589 172.744C291.238 171.662 289.394 173.628 289.394 173.628L288.312 163.895C288.312 163.895 281.554 164.705 277.228 163.625C272.903 162.545 272.227 167.545 272.227 167.545C272.004 165.526 271.959 163.49 272.092 161.462C272.362 159.029 275.877 156.596 282.095 154.974C288.312 153.352 291.556 160.381 291.556 160.381C295.882 162.543 293.941 173.825 292.589 172.744Z" fill="#2F2E41"/>
</g>
<defs>
<clipPath id="clip0">
<rect width="329" height="330" fill="white"/>
</clipPath>
</defs>
</svg>
