<svg width="445" height="304" viewBox="0 0 445 304" fill="none" xmlns="http://www.w3.org/2000/svg">
<path d="M102.465 210.386L136.919 162.214L59.7591 118.592L19.9119 174.304L83.7326 210.386H102.465Z" fill="#F0F0F0"/>
<path d="M151.289 225.413H65.9464V210.139H151.289V225.413ZM67.0548 224.428H150.181V211.125H67.0548V224.428Z" fill="#3F3D56"/>
<path d="M140.76 222.703C143.82 222.703 146.301 220.497 146.301 217.776C146.301 215.055 143.82 212.849 140.76 212.849C137.699 212.849 135.218 215.055 135.218 217.776C135.218 220.497 137.699 222.703 140.76 222.703Z" fill="#214A4A"/>
<path d="M125.243 222.703C128.303 222.703 130.785 220.497 130.785 217.776C130.785 215.055 128.303 212.849 125.243 212.849C122.182 212.849 119.701 215.055 119.701 217.776C119.701 220.497 122.182 222.703 125.243 222.703Z" fill="#214A4A"/>
<path d="M109.726 222.703C112.787 222.703 115.268 220.497 115.268 217.776C115.268 215.055 112.787 212.849 109.726 212.849C106.665 212.849 104.184 215.055 104.184 217.776C104.184 220.497 106.665 222.703 109.726 222.703Z" fill="#214A4A"/>
<path d="M94.2092 222.703C97.2698 222.703 99.7509 220.497 99.7509 217.776C99.7509 215.055 97.2698 212.849 94.2092 212.849C91.1486 212.849 88.6675 215.055 88.6675 217.776C88.6675 220.497 91.1486 222.703 94.2092 222.703Z" fill="#214A4A"/>
<path d="M78.6924 222.703C81.753 222.703 84.2341 220.497 84.2341 217.776C84.2341 215.055 81.753 212.849 78.6924 212.849C75.6318 212.849 73.1507 215.055 73.1507 217.776C73.1507 220.497 75.6318 222.703 78.6924 222.703Z" fill="#214A4A"/>
<path d="M252.702 55.6759V18.2301H273.761V0H170.685V91.6434H258.798V82.6833C258.798 81.013 259.168 79.3591 259.887 77.8159C260.606 76.2728 261.66 74.8707 262.988 73.6896C264.317 72.5086 265.894 71.5717 267.629 70.9325C269.365 70.2933 271.225 69.9643 273.104 69.9643H273.761V55.6759H252.702Z" fill="#F0F0F0"/>
<path d="M366.862 236.499H298.144V249.31H366.862V236.499Z" fill="#214A4A"/>
<path d="M381.824 173.433H280.965V185.258H381.824V173.433Z" fill="#F0F0F0"/>
<path d="M431.146 303.015H0V304H431.146V303.015Z" fill="#3F3D56"/>
<path d="M399.107 304H273.104C269.164 303.996 265.387 302.603 262.601 300.126C259.816 297.649 258.249 294.291 258.244 290.788V82.6833C258.249 79.1806 259.816 75.8225 262.601 73.3456C265.387 70.8688 269.164 69.4756 273.104 69.4716H399.107C403.046 69.4756 406.823 70.8688 409.609 73.3456C412.395 75.8225 413.962 79.1806 413.966 82.6833V290.788C413.962 294.291 412.395 297.649 409.609 300.126C406.823 302.603 403.046 303.996 399.107 304ZM273.104 70.4571C269.458 70.4607 265.963 71.75 263.385 74.0421C260.807 76.3342 259.357 79.4418 259.352 82.6833V290.788C259.357 294.03 260.807 297.137 263.385 299.43C265.963 301.722 269.458 303.011 273.104 303.015H399.107C402.752 303.011 406.248 301.722 408.826 299.43C411.404 297.137 412.854 294.03 412.858 290.788V82.6833C412.854 79.4418 411.404 76.3342 408.826 74.0421C406.248 71.75 402.752 70.4607 399.107 70.4571H273.104Z" fill="#3F3D56"/>
<path d="M321.143 79.3258C320.485 79.3258 319.842 79.1524 319.295 78.8276C318.748 78.5027 318.322 78.041 318.071 77.5008C317.819 76.9607 317.753 76.3663 317.881 75.7928C318.01 75.2193 318.326 74.6926 318.791 74.2792C319.256 73.8657 319.849 73.5842 320.494 73.4701C321.139 73.356 321.807 73.4146 322.415 73.6383C323.023 73.8621 323.542 74.241 323.907 74.7271C324.273 75.2133 324.468 75.7848 324.468 76.3695C324.467 77.1533 324.116 77.9047 323.493 78.459C322.869 79.0132 322.024 79.3249 321.143 79.3258ZM321.143 74.3987C320.704 74.3987 320.276 74.5143 319.911 74.7309C319.547 74.9474 319.262 75.2552 319.095 75.6153C318.927 75.9754 318.883 76.3717 318.968 76.754C319.054 77.1363 319.265 77.4875 319.575 77.7631C319.885 78.0387 320.28 78.2264 320.71 78.3025C321.14 78.3785 321.586 78.3395 321.991 78.1903C322.396 78.0412 322.742 77.7886 322.986 77.4645C323.229 77.1404 323.359 76.7593 323.359 76.3695C323.359 75.847 323.125 75.346 322.709 74.9766C322.294 74.6071 321.73 74.3993 321.143 74.3987Z" fill="#3F3D56"/>
<path d="M353.839 75.8768H329.455V76.8622H353.839V75.8768Z" fill="#3F3D56"/>
<path d="M403.991 83.7601V123.177C392.233 123.176 380.957 119.023 372.643 111.631C364.329 104.239 359.658 94.2139 359.658 83.7601H403.991Z" fill="#214A4A"/>
<path d="M404.545 290.697H267.665V83.2674H404.545V290.697ZM268.773 289.712H403.437V84.2528H268.773V289.712Z" fill="#3F3D56"/>
<path opacity="0.1" d="M371.849 120.713C380.113 120.713 386.812 114.757 386.812 107.41C386.812 100.063 380.113 94.107 371.849 94.107C363.586 94.107 356.887 100.063 356.887 107.41C356.887 114.757 363.586 120.713 371.849 120.713Z" fill="black"/>
<path d="M369.633 122.191C377.896 122.191 384.595 116.235 384.595 108.888C384.595 101.541 377.896 95.5851 369.633 95.5851C361.369 95.5851 354.67 101.541 354.67 108.888C354.67 116.235 361.369 122.191 369.633 122.191Z" fill="#214A4A"/>
<path d="M294.819 91.6434H273.761V98.5413H294.819V91.6434Z" fill="#3F3D56"/>
<path d="M306.457 157.173H285.398V164.071H306.457V157.173Z" fill="#3F3D56"/>
<path d="M387.366 182.794H285.398V169.984H387.366V182.794ZM286.507 181.809H386.258V170.969H286.507V181.809Z" fill="#3F3D56"/>
<path d="M381.824 210.878H280.965V222.703H381.824V210.878Z" fill="#F0F0F0"/>
<path d="M306.457 194.619H285.398V201.517H306.457V194.619Z" fill="#3F3D56"/>
<path d="M387.366 220.24H285.398V207.43H387.366V220.24ZM286.507 219.254H386.258V208.415H286.507V219.254Z" fill="#3F3D56"/>
<path d="M371.295 246.353H301.469V232.558H371.295V246.353ZM302.578 245.368H370.187V233.543H302.578V245.368Z" fill="#3F3D56"/>
<path d="M384.595 177.867C384.595 178.881 384.243 179.871 383.587 180.701C382.931 181.531 382.002 182.16 380.929 182.503C379.855 182.847 378.689 182.887 377.588 182.619C376.488 182.351 375.508 181.788 374.781 181.006L374.775 181.001C374.246 180.429 373.867 179.759 373.669 179.04C373.471 178.321 373.457 177.571 373.63 176.847C373.802 176.123 374.156 175.442 374.665 174.856C375.174 174.27 375.825 173.793 376.569 173.462C377.314 173.13 378.133 172.952 378.966 172.941C379.799 172.929 380.624 173.085 381.379 173.396C382.135 173.707 382.802 174.166 383.331 174.738C383.86 175.309 384.237 175.98 384.435 176.699C384.435 176.7 384.435 176.701 384.435 176.701C384.435 176.702 384.436 176.702 384.436 176.703C384.437 176.703 384.437 176.704 384.438 176.704C384.439 176.704 384.439 176.704 384.44 176.704C384.542 177.085 384.595 177.475 384.595 177.867Z" fill="#214A4A"/>
<path opacity="0.1" d="M384.595 177.867C384.595 178.881 384.243 179.871 383.587 180.701C382.931 181.531 382.002 182.16 380.929 182.503C379.855 182.847 378.689 182.887 377.588 182.619C376.488 182.351 375.508 181.788 374.781 181.006L374.775 181.001C374.673 180.62 374.621 180.23 374.62 179.838C374.62 178.824 374.972 177.834 375.629 177.004C376.285 176.174 377.213 175.545 378.287 175.202C379.36 174.858 380.527 174.818 381.627 175.086C382.727 175.354 383.708 175.918 384.435 176.699C384.435 176.7 384.435 176.701 384.435 176.701C384.435 176.702 384.436 176.702 384.436 176.703C384.437 176.703 384.437 176.704 384.438 176.704C384.439 176.704 384.439 176.704 384.44 176.704C384.542 177.085 384.595 177.475 384.595 177.867Z" fill="black"/>
<path d="M381.27 185.75C384.331 185.75 386.812 183.544 386.812 180.823C386.812 178.102 384.331 175.896 381.27 175.896C378.21 175.896 375.729 178.102 375.729 180.823C375.729 183.544 378.21 185.75 381.27 185.75Z" fill="#214A4A"/>
<path d="M384.595 215.313C384.595 216.327 384.243 217.317 383.587 218.146C382.931 218.976 382.002 219.606 380.929 219.949C379.855 220.292 378.689 220.333 377.588 220.065C376.488 219.797 375.508 219.233 374.781 218.451L374.775 218.446C374.246 217.875 373.867 217.205 373.669 216.486C373.471 215.767 373.457 215.017 373.63 214.293C373.802 213.568 374.156 212.888 374.665 212.302C375.174 211.716 375.825 211.239 376.569 210.907C377.314 210.576 378.133 210.398 378.966 210.386C379.799 210.375 380.624 210.531 381.379 210.842C382.135 211.153 382.802 211.611 383.331 212.183C383.86 212.755 384.237 213.426 384.435 214.145C384.435 214.146 384.435 214.146 384.435 214.147C384.435 214.148 384.436 214.148 384.436 214.149C384.437 214.149 384.437 214.149 384.438 214.15C384.439 214.15 384.439 214.15 384.44 214.15C384.542 214.531 384.595 214.921 384.595 215.313Z" fill="#214A4A"/>
<path opacity="0.1" d="M384.595 215.313C384.595 216.327 384.243 217.317 383.587 218.146C382.931 218.976 382.002 219.606 380.929 219.949C379.855 220.292 378.689 220.333 377.588 220.065C376.488 219.797 375.508 219.233 374.781 218.451L374.775 218.446C374.673 218.066 374.621 217.675 374.62 217.284C374.62 216.269 374.972 215.28 375.629 214.45C376.285 213.62 377.213 212.991 378.287 212.647C379.36 212.304 380.527 212.264 381.627 212.532C382.727 212.8 383.708 213.363 384.435 214.145C384.435 214.146 384.435 214.146 384.435 214.147C384.435 214.148 384.436 214.148 384.436 214.149C384.437 214.149 384.437 214.149 384.438 214.15C384.439 214.15 384.439 214.15 384.44 214.15C384.542 214.531 384.595 214.921 384.595 215.313Z" fill="black"/>
<path d="M381.27 223.196C384.331 223.196 386.812 220.99 386.812 218.269C386.812 215.548 384.331 213.342 381.27 213.342C378.21 213.342 375.729 215.548 375.729 218.269C375.729 220.99 378.21 223.196 381.27 223.196Z" fill="#214A4A"/>
<path d="M288.169 23.6499H259.352V49.2707H288.169V23.6499Z" fill="#F0F0F0"/>
<path d="M371.849 42.3728C370.534 42.3728 369.248 42.026 368.155 41.3763C367.061 40.7267 366.209 39.8033 365.705 38.7229C365.202 37.6425 365.07 36.4537 365.327 35.3068C365.584 34.1599 366.217 33.1064 367.147 32.2795C368.077 31.4527 369.262 30.8895 370.552 30.6614C371.842 30.4333 373.179 30.5504 374.394 30.9979C375.609 31.4454 376.648 32.2032 377.379 33.1755C378.109 34.1478 378.499 35.2909 378.499 36.4603C378.497 38.0278 377.796 39.5307 376.549 40.6391C375.303 41.7475 373.612 42.371 371.849 42.3728ZM371.849 31.5332C370.753 31.5332 369.682 31.8222 368.77 32.3636C367.859 32.905 367.149 33.6745 366.729 34.5748C366.31 35.4751 366.2 36.4657 366.414 37.4215C366.628 38.3773 367.156 39.2552 367.931 39.9442C368.706 40.6333 369.693 41.1026 370.768 41.2927C371.843 41.4828 372.957 41.3852 373.97 41.0123C374.983 40.6394 375.848 40.0079 376.457 39.1976C377.066 38.3874 377.391 37.4348 377.391 36.4603C377.389 35.154 376.805 33.9017 375.766 32.978C374.727 32.0543 373.319 31.5347 371.849 31.5332Z" fill="#3F3D56"/>
<path d="M225.548 124.655H211.139V111.844H225.548V124.655ZM212.248 123.669H224.44V112.83H212.248V123.669Z" fill="#3F3D56"/>
<path d="M445 220.24H430.592V207.43H445V220.24ZM431.7 219.254H443.892V208.415H431.7V219.254Z" fill="#3F3D56"/>
<path d="M160.711 134.345L163.184 135.529L171.597 139.56L185.18 146.067L193.096 133.009C193.841 131.782 194.308 130.437 194.467 129.05C194.627 127.662 194.478 126.261 194.028 124.925C193.578 123.589 192.836 122.345 191.844 121.265C190.853 120.184 189.632 119.288 188.25 118.628C185.298 117.21 181.916 116.663 178.592 117.064C175.267 117.465 172.172 118.794 169.751 120.859L169.747 120.863C168.556 121.88 167.551 123.056 166.768 124.349L160.711 134.345Z" fill="#2F2E41"/>
<path d="M197.784 267.509L196.125 283.738L189.901 284.476L185.753 266.033L197.784 267.509Z" fill="#FFB8B8"/>
<path d="M188.242 284.476C188.242 284.476 196.125 280.787 197.784 283.738C197.784 283.738 196.539 292.591 201.518 293.697C206.496 294.804 208.571 302.55 201.518 303.287C194.465 304.025 189.901 301.812 187.412 301.812C184.923 301.812 187.412 294.066 187.412 294.066L188.242 284.476Z" fill="#2F2E41"/>
<path d="M147.585 267.509L149.245 283.738L155.467 284.476L159.616 266.033L147.585 267.509Z" fill="#FFB8B8"/>
<path d="M157.127 284.476C157.127 284.476 149.244 280.787 147.585 283.738C147.585 283.738 148.829 292.591 143.851 293.697C138.873 294.804 136.798 302.55 143.851 303.287C150.904 304.025 155.467 301.812 157.957 301.812C160.446 301.812 157.957 294.066 157.957 294.066L157.127 284.476Z" fill="#2F2E41"/>
<path d="M181.604 137.303C187.561 137.303 192.391 133.009 192.391 127.713C192.391 122.416 187.561 118.122 181.604 118.122C175.647 118.122 170.818 122.416 170.818 127.713C170.818 133.009 175.647 137.303 181.604 137.303Z" fill="#FFB8B8"/>
<path d="M147.17 146.524L155.882 158.696L166.254 157.959L183.264 159.065C183.264 159.065 184.869 156.21 186.18 153.433C186.898 152.046 187.45 150.596 187.827 149.106C188.242 146.524 182.434 143.942 182.434 143.942C182.434 143.942 182.206 143.905 181.824 143.824C181.318 143.717 180.538 143.54 179.683 143.282C177.754 142.699 175.435 141.711 174.966 140.254C174.136 137.672 180.359 133.983 180.359 133.983L172.892 127.713C172.892 127.713 166.258 135.905 158.201 137.771C157.734 137.881 157.261 137.967 156.782 138.029C156.758 138.033 156.737 138.037 156.712 138.041C148 139.147 147.17 146.524 147.17 146.524Z" fill="#FFB8B8"/>
<path d="M151.734 143.204L147.17 146.524C147.17 146.524 143.436 162.385 144.681 166.811C145.925 171.237 144.266 175.295 144.266 176.033C144.266 176.77 140.532 204.434 140.532 204.434C140.532 204.434 133.064 219.188 140.947 217.713C148.829 216.238 145.925 201.483 145.925 201.483L155.467 175.664V153.901L151.734 143.204Z" fill="#FFB8B8"/>
<path d="M184.508 146.155L187.827 148.368L189.487 179.352L201.933 205.91C201.933 205.91 211.06 218.82 205.252 219.188C199.443 219.557 195.71 205.91 195.71 205.91L184.508 180.459L182.849 155.746L184.508 146.155Z" fill="#FFB8B8"/>
<path d="M163.765 148.368C163.765 148.368 172.062 153.532 185.338 151.688C185.338 151.688 189.072 158.327 186.997 162.016C184.923 165.705 189.487 174.557 190.316 175.664C191.146 176.77 200.688 199.639 204.007 224.352C207.326 249.066 216.453 266.033 208.571 268.246C200.688 270.459 184.508 273.041 182.849 270.828C181.189 268.615 178.7 213.656 178.7 213.656L174.136 234.68C174.136 234.68 180.359 270.459 175.796 271.197C171.232 271.935 142.606 269.722 143.436 265.295C144.266 260.869 152.563 237.631 152.563 237.631C152.563 237.631 152.148 191.156 160.446 182.303C160.446 182.303 163.765 177.508 159.201 171.237C154.638 164.967 155.052 155.008 155.052 155.008C155.052 155.008 158.371 155.008 163.765 148.368Z" fill="#2F2E41"/>
<path d="M156.782 138.029L163.765 151.688L165.424 150.951L158.201 137.771L156.782 138.029Z" fill="#2F2E41"/>
<path d="M179.683 143.282L184.923 153.532L186.18 153.433L185.753 151.688L181.824 143.824C181.318 143.717 180.538 143.54 179.683 143.282Z" fill="#2F2E41"/>
<path d="M163.184 135.529C163.583 136.67 164.352 137.681 165.394 138.435C166.436 139.189 167.706 139.654 169.043 139.769C170.381 139.885 171.727 139.647 172.914 139.086C174.1 138.524 175.074 137.664 175.713 136.613C170.465 130.512 174.966 126.68 183.492 123.781C184.134 122.721 184.407 121.515 184.276 120.317C184.145 119.119 183.617 117.983 182.757 117.053C180.407 116.785 178.02 116.989 175.77 117.647C173.519 118.306 171.463 119.403 169.751 120.859L169.747 120.863L163.69 130.852C163.259 131.562 162.992 132.341 162.905 133.145C162.818 133.948 162.913 134.758 163.184 135.529Z" fill="#2F2E41"/>
<path d="M175.174 131.032C175.976 131.032 176.626 130.041 176.626 128.819C176.626 127.597 175.976 126.606 175.174 126.606C174.372 126.606 173.722 127.597 173.722 128.819C173.722 130.041 174.372 131.032 175.174 131.032Z" fill="#FFB8B8"/>
<path d="M179.501 125.208L191.972 130.232L194.258 125.747C193.864 124.107 193.039 122.574 191.851 121.272L183.268 117.816L179.501 125.208Z" fill="#2F2E41"/>
<path d="M209.477 224.182C212.538 224.182 215.019 221.976 215.019 219.254C215.019 216.533 212.538 214.327 209.477 214.327C206.416 214.327 203.935 216.533 203.935 219.254C203.935 221.976 206.416 224.182 209.477 224.182Z" fill="#214A4A"/>
<path d="M31.5637 253.471C33.5639 253.471 35.1854 252.03 35.1854 250.251C35.1854 248.473 33.5639 247.031 31.5637 247.031C29.5635 247.031 27.942 248.473 27.942 250.251C27.942 252.03 29.5635 253.471 31.5637 253.471Z" fill="#FF6584"/>
<path d="M49.8617 267.034H48.7533V303.696H49.8617V267.034Z" fill="#3F3D56"/>
<path d="M49.3076 272.218C52.5282 272.218 55.1391 269.897 55.1391 267.033C55.1391 264.17 52.5282 261.849 49.3076 261.849C46.087 261.849 43.4762 264.17 43.4762 267.033C43.4762 269.897 46.087 272.218 49.3076 272.218Z" fill="#3F3D56"/>
<path d="M49.3076 289.63C49.3076 289.63 48.4745 273.699 31.3967 275.551L49.3076 289.63Z" fill="#3F3D56"/>
</svg>
